<svg xmlns="http://www.w3.org/2000/svg" version="1.1" xmlns:xlink="http://www.w3.org/1999/xlink" xmlns:svgjs="http://svgjs.com/svgjs" width="1440" height="200" preserveAspectRatio="none" viewBox="0 0 1440 200"><g mask="url(&quot;#SvgjsMask1055&quot;)" fill="none"><path d="M267.58 200.72C433.31 199.26 586.65 30.12 908.18 30.01 1229.72 29.9 1387.98 87.95 1548.79 88.01" stroke="rgba(255, 69, 0, 1)" stroke-width="2"></path><path d="M801.91 207.79C897.96 207.37 985.48 130.05 1177.95 129.09 1370.42 128.13 1457.55 43.64 1553.99 43.09" stroke="rgba(255, 69, 0, 1)" stroke-width="2"></path><path d="M289.96 212.37C397.98 208.23 483.03 34.08 683.57 33.36 884.1 32.64 880.37 58.36 1077.17 58.36 1273.98 58.36 1372.18 33.37 1470.78 33.36" stroke="rgba(255, 69, 0, 1)" stroke-width="2"></path><path d="M689.81 201.75C788.13 200.87 875.58 100.63 1069.67 99.77 1263.76 98.91 1353.46 41.94 1449.53 41.77" stroke="rgba(255, 69, 0, 1)" stroke-width="2"></path><path d="M298.54 209.11C443.58 208.91 583.18 127.89 872.94 127.55 1162.69 127.21 1302.61 55.69 1447.33 55.55" stroke="rgba(255, 69, 0, 1)" stroke-width="2"></path></g><defs><mask id="SvgjsMask1055"><rect width="1440" height="200" fill="#ffffff"></rect></mask></defs></svg>